<svg width="49" height="49" viewBox="0 0 49 49" fill="none" xmlns="http://www.w3.org/2000/svg">
<rect x="0.865234" y="0.474121" width="48" height="48" rx="12" fill="url(#paint0_linear_18_1837)"/>
<path d="M15.0174 16.6187C15.2752 16.0718 15.8221 15.7241 16.4275 15.7241H33.3025C33.908 15.7241 34.4549 16.0718 34.7127 16.6187C34.9705 17.1655 34.8924 17.8101 34.5096 18.2788L27.365 27.0093V31.9741C27.365 32.4468 27.0994 32.8804 26.6736 33.0913C26.2478 33.3022 25.7439 33.2593 25.365 32.9741L22.865 31.0991C22.5486 30.8647 22.365 30.4937 22.365 30.0991V27.0093L15.2166 18.2749C14.8377 17.8101 14.7557 17.1616 15.0174 16.6187Z" fill="white"/>
<defs>
<linearGradient id="paint0_linear_18_1837" x1="0.865234" y1="24.4741" x2="48.8652" y2="24.4741" gradientUnits="userSpaceOnUse">
<stop stop-color="#6366F1"/>
<stop offset="1" stop-color="#A855F7"/>
</linearGradient>
</defs>
</svg>
