<svg width="65" height="65" viewBox="0 0 65 65" fill="none" xmlns="http://www.w3.org/2000/svg">
<g filter="url(#filter0_dd_18_1700)">
<rect x="12.8647" y="2.47412" width="40" height="40" rx="12" fill="url(#paint0_linear_18_1700)"/>
<path d="M28.6179 17.6015L27.7003 20.2241H38.0292L37.1116 17.6015C36.9534 17.1515 36.528 16.8491 36.0499 16.8491H29.6796C29.2015 16.8491 28.7761 17.1515 28.6179 17.6015ZM25.2569 20.3929L26.4944 16.8597C26.969 15.5062 28.2452 14.5991 29.6796 14.5991H36.0499C37.4843 14.5991 38.7604 15.5062 39.2351 16.8597L40.4726 20.3929C41.2882 20.7304 41.8647 21.5354 41.8647 22.4741V27.5366V29.2241C41.8647 29.8464 41.362 30.3491 40.7397 30.3491H39.6147C38.9925 30.3491 38.4897 29.8464 38.4897 29.2241V27.5366H27.2397V29.2241C27.2397 29.8464 26.737 30.3491 26.1147 30.3491H24.9897C24.3675 30.3491 23.8647 29.8464 23.8647 29.2241V27.5366V22.4741C23.8647 21.5354 24.4413 20.7304 25.2569 20.3929ZM28.3647 23.5991C28.3647 23.3008 28.2462 23.0146 28.0352 22.8036C27.8243 22.5926 27.5381 22.4741 27.2397 22.4741C26.9414 22.4741 26.6552 22.5926 26.4443 22.8036C26.2333 23.0146 26.1147 23.3008 26.1147 23.5991C26.1147 23.8975 26.2333 24.1836 26.4443 24.3946C26.6552 24.6056 26.9414 24.7241 27.2397 24.7241C27.5381 24.7241 27.8243 24.6056 28.0352 24.3946C28.2462 24.1836 28.3647 23.8975 28.3647 23.5991ZM38.4897 24.7241C38.7881 24.7241 39.0743 24.6056 39.2852 24.3946C39.4962 24.1836 39.6147 23.8975 39.6147 23.5991C39.6147 23.3008 39.4962 23.0146 39.2852 22.8036C39.0743 22.5926 38.7881 22.4741 38.4897 22.4741C38.1914 22.4741 37.9052 22.5926 37.6943 22.8036C37.4833 23.0146 37.3647 23.3008 37.3647 23.5991C37.3647 23.8975 37.4833 24.1836 37.6943 24.3946C37.9052 24.6056 38.1914 24.7241 38.4897 24.7241Z" fill="white"/>
</g>
<defs>
<filter id="filter0_dd_18_1700" x="0.864746" y="0.474121" width="64.0005" height="64" filterUnits="userSpaceOnUse" color-interpolation-filters="sRGB">
<feFlood flood-opacity="0" result="BackgroundImageFix"/>
<feColorMatrix in="SourceAlpha" type="matrix" values="0 0 0 0 0 0 0 0 0 0 0 0 0 0 0 0 0 0 127 0" result="hardAlpha"/>
<feMorphology radius="4" operator="erode" in="SourceAlpha" result="effect1_dropShadow_18_1700"/>
<feOffset dy="4"/>
<feGaussianBlur stdDeviation="3"/>
<feComposite in2="hardAlpha" operator="out"/>
<feColorMatrix type="matrix" values="0 0 0 0 0 0 0 0 0 0 0 0 0 0 0 0 0 0 0.1 0"/>
<feBlend mode="normal" in2="BackgroundImageFix" result="effect1_dropShadow_18_1700"/>
<feColorMatrix in="SourceAlpha" type="matrix" values="0 0 0 0 0 0 0 0 0 0 0 0 0 0 0 0 0 0 127 0" result="hardAlpha"/>
<feMorphology radius="3" operator="erode" in="SourceAlpha" result="effect2_dropShadow_18_1700"/>
<feOffset dy="10"/>
<feGaussianBlur stdDeviation="7.5"/>
<feComposite in2="hardAlpha" operator="out"/>
<feColorMatrix type="matrix" values="0 0 0 0 0 0 0 0 0 0 0 0 0 0 0 0 0 0 0.1 0"/>
<feBlend mode="normal" in2="effect1_dropShadow_18_1700" result="effect2_dropShadow_18_1700"/>
<feBlend mode="normal" in="SourceGraphic" in2="effect2_dropShadow_18_1700" result="shape"/>
</filter>
<linearGradient id="paint0_linear_18_1700" x1="12.8647" y1="2.47412" x2="52.8647" y2="42.4741" gradientUnits="userSpaceOnUse">
<stop stop-color="#667EEA"/>
<stop offset="1" stop-color="#764BA2"/>
</linearGradient>
</defs>
</svg>
