<svg width="17" height="15" viewBox="0 0 17 15" fill="none" xmlns="http://www.w3.org/2000/svg">
<path d="M5.09023 3.14287L4.27461 5.47412H13.4559L12.6402 3.14287C12.4996 2.74287 12.1215 2.47412 11.6965 2.47412H6.03398C5.60898 2.47412 5.23086 2.74287 5.09023 3.14287ZM2.10273 5.62412L3.20273 2.4835C3.62461 1.28037 4.75898 0.474121 6.03398 0.474121H11.6965C12.9715 0.474121 14.1059 1.28037 14.5277 2.4835L15.6277 5.62412C16.3527 5.92412 16.8652 6.63975 16.8652 7.47412V11.9741V13.4741C16.8652 14.0272 16.4184 14.4741 15.8652 14.4741H14.8652C14.3121 14.4741 13.8652 14.0272 13.8652 13.4741V11.9741H3.86523V13.4741C3.86523 14.0272 3.41836 14.4741 2.86523 14.4741H1.86523C1.31211 14.4741 0.865234 14.0272 0.865234 13.4741V11.9741V7.47412C0.865234 6.63975 1.37773 5.92412 2.10273 5.62412ZM4.86523 8.47412C4.86523 8.2089 4.75988 7.95455 4.57234 7.76701C4.3848 7.57948 4.13045 7.47412 3.86523 7.47412C3.60002 7.47412 3.34566 7.57948 3.15813 7.76701C2.97059 7.95455 2.86523 8.2089 2.86523 8.47412C2.86523 8.73934 2.97059 8.99369 3.15813 9.18123C3.34566 9.36876 3.60002 9.47412 3.86523 9.47412C4.13045 9.47412 4.3848 9.36876 4.57234 9.18123C4.75988 8.99369 4.86523 8.73934 4.86523 8.47412ZM13.8652 9.47412C14.1305 9.47412 14.3848 9.36876 14.5723 9.18123C14.7599 8.99369 14.8652 8.73934 14.8652 8.47412C14.8652 8.2089 14.7599 7.95455 14.5723 7.76701C14.3848 7.57948 14.1305 7.47412 13.8652 7.47412C13.6 7.47412 13.3457 7.57948 13.1581 7.76701C12.9706 7.95455 12.8652 8.2089 12.8652 8.47412C12.8652 8.73934 12.9706 8.99369 13.1581 9.18123C13.3457 9.36876 13.6 9.47412 13.8652 9.47412Z" fill="#6366F1"/>
</svg>
