<svg width="81" height="81" viewBox="0 0 81 81" fill="none" xmlns="http://www.w3.org/2000/svg">
<rect x="0.865234" y="0.474121" width="80" height="80" rx="16" fill="url(#paint0_linear_18_1769)"/>
<path d="M48.2134 28.0874C48.5591 27.2847 48.3013 26.3472 47.5923 25.8316C46.8833 25.316 45.9165 25.3628 45.2544 25.9371L30.2544 39.0621C29.6684 39.5777 29.4575 40.4039 29.7329 41.1304C30.0083 41.857 30.7114 42.3492 31.4907 42.3492H38.0239L33.5181 52.8609C33.1724 53.6636 33.4302 54.6011 34.1391 55.1167C34.8481 55.6324 35.8149 55.5855 36.477 55.0113L51.477 41.8863C52.063 41.3706 52.2739 40.5445 51.9985 39.8179C51.7231 39.0914 51.0259 38.605 50.2407 38.605H43.7075L48.2134 28.0874Z" fill="white"/>
<defs>
<linearGradient id="paint0_linear_18_1769" x1="0.865234" y1="0.474121" x2="80.8652" y2="80.4741" gradientUnits="userSpaceOnUse">
<stop stop-color="#EAB308"/>
<stop offset="1" stop-color="#EA580C"/>
</linearGradient>
</defs>
</svg>
