<svg width="19" height="19" viewBox="0 0 19 19" fill="none" xmlns="http://www.w3.org/2000/svg">
<path d="M2.53867 11.0351L8.89141 16.966C9.15508 17.2121 9.50313 17.3492 9.86523 17.3492C10.2273 17.3492 10.5754 17.2121 10.8391 16.966L17.1918 11.0351C18.2605 10.0402 18.8652 8.6445 18.8652 7.18552V6.98161C18.8652 4.52419 17.0898 2.42887 14.6676 2.02458C13.0645 1.75739 11.4332 2.28122 10.2871 3.42731L9.86523 3.84919L9.44336 3.42731C8.29727 2.28122 6.66602 1.75739 5.06289 2.02458C2.64062 2.42887 0.865234 4.52419 0.865234 6.98161V7.18552C0.865234 8.6445 1.46992 10.0402 2.53867 11.0351Z" fill="#6B7280"/>
</svg>
