<svg width="65" height="65" viewBox="0 0 65 65" fill="none" xmlns="http://www.w3.org/2000/svg">
<rect x="0.865234" y="0.474121" width="64" height="64" rx="16" fill="url(#paint0_linear_18_1806)"/>
<path d="M29.0273 21.5054L31.0664 24.9741H30.9902H26.7715C25.4766 24.9741 24.4277 23.9253 24.4277 22.6304C24.4277 21.3354 25.4766 20.2866 26.7715 20.2866H26.9004C27.7734 20.2866 28.5879 20.7495 29.0273 21.5054ZM21.6152 22.6304C21.6152 23.4741 21.8203 24.271 22.1777 24.9741H19.7402C18.7031 24.9741 17.8652 25.812 17.8652 26.8491V30.5991C17.8652 31.6362 18.7031 32.4741 19.7402 32.4741H45.9902C47.0273 32.4741 47.8652 31.6362 47.8652 30.5991V26.8491C47.8652 25.812 47.0273 24.9741 45.9902 24.9741H43.5527C43.9102 24.271 44.1152 23.4741 44.1152 22.6304C44.1152 19.7827 41.8066 17.4741 38.959 17.4741H38.8301C36.9609 17.4741 35.2266 18.4644 34.2773 20.0757L32.8652 22.4839L31.4531 20.0815C30.5039 18.4644 28.7695 17.4741 26.9004 17.4741H26.7715C23.9238 17.4741 21.6152 19.7827 21.6152 22.6304ZM41.3027 22.6304C41.3027 23.9253 40.2539 24.9741 38.959 24.9741H34.7402H34.6641L36.7031 21.5054C37.1484 20.7495 37.957 20.2866 38.8301 20.2866H38.959C40.2539 20.2866 41.3027 21.3354 41.3027 22.6304ZM19.7402 34.3491V44.6616C19.7402 46.2144 21 47.4741 22.5527 47.4741H30.9902V34.3491H19.7402ZM34.7402 47.4741H43.1777C44.7305 47.4741 45.9902 46.2144 45.9902 44.6616V34.3491H34.7402V47.4741Z" fill="white"/>
<defs>
<linearGradient id="paint0_linear_18_1806" x1="0.865234" y1="32.4741" x2="64.8652" y2="32.4741" gradientUnits="userSpaceOnUse">
<stop stop-color="#6366F1"/>
<stop offset="1" stop-color="#A855F7"/>
</linearGradient>
</defs>
</svg>
