<svg width="19" height="15" viewBox="0 0 19 15" fill="none" xmlns="http://www.w3.org/2000/svg">
<path d="M8.86523 0.474121H6.52773C5.68086 0.474121 4.92461 1.0085 4.64336 1.80537L0.962109 12.1991C0.899609 12.3804 0.865234 12.5741 0.865234 12.7679C0.865234 13.7085 1.63086 14.4741 2.57148 14.4741H8.86523V12.4741C8.86523 11.921 9.31211 11.4741 9.86523 11.4741C10.4184 11.4741 10.8652 11.921 10.8652 12.4741V14.4741H17.159C18.1027 14.4741 18.8652 13.7085 18.8652 12.7679C18.8652 12.5741 18.8309 12.3804 18.7684 12.1991L15.0871 1.80537C14.8027 1.0085 14.0496 0.474121 13.2027 0.474121H10.8652V2.47412C10.8652 3.02725 10.4184 3.47412 9.86523 3.47412C9.31211 3.47412 8.86523 3.02725 8.86523 2.47412V0.474121ZM10.8652 6.47412V8.47412C10.8652 9.02725 10.4184 9.47412 9.86523 9.47412C9.31211 9.47412 8.86523 9.02725 8.86523 8.47412V6.47412C8.86523 5.921 9.31211 5.47412 9.86523 5.47412C10.4184 5.47412 10.8652 5.921 10.8652 6.47412Z" fill="#6366F1"/>
</svg>
