<svg width="19" height="19" viewBox="0 0 19 19" fill="none" xmlns="http://www.w3.org/2000/svg">
<path d="M15.4902 7.78662C15.4902 9.40029 14.9664 10.8909 14.084 12.1003L18.5348 16.5546C18.9742 16.994 18.9742 17.7077 18.5348 18.1472C18.0953 18.5866 17.3816 18.5866 16.9422 18.1472L12.4914 13.6929C11.282 14.5788 9.79141 15.0991 8.17773 15.0991C4.13828 15.0991 0.865234 11.8261 0.865234 7.78662C0.865234 3.74717 4.13828 0.474121 8.17773 0.474121C12.2172 0.474121 15.4902 3.74717 15.4902 7.78662ZM8.17773 12.8491C8.84255 12.8491 9.50086 12.7182 10.1151 12.4638C10.7293 12.2093 11.2874 11.8364 11.7575 11.3663C12.2276 10.8963 12.6005 10.3382 12.8549 9.72396C13.1093 9.10975 13.2402 8.45144 13.2402 7.78662C13.2402 7.1218 13.1093 6.4635 12.8549 5.84929C12.6005 5.23508 12.2276 4.67699 11.7575 4.20689C11.2874 3.7368 10.7293 3.3639 10.1151 3.10948C9.50086 2.85507 8.84255 2.72412 8.17773 2.72412C7.51292 2.72412 6.85461 2.85507 6.2404 3.10948C5.62619 3.3639 5.0681 3.7368 4.59801 4.20689C4.12791 4.67699 3.75501 5.23508 3.50059 5.84929C3.24618 6.4635 3.11523 7.1218 3.11523 7.78662C3.11523 8.45144 3.24618 9.10975 3.50059 9.72396C3.75501 10.3382 4.12791 10.8963 4.59801 11.3663C5.0681 11.8364 5.62619 12.2093 6.2404 12.4638C6.85461 12.7182 7.51292 12.8491 8.17773 12.8491Z" fill="#6B7280"/>
</svg>
