<svg width="81" height="81" viewBox="0 0 81 81" fill="none" xmlns="http://www.w3.org/2000/svg">
<rect x="0.865234" y="0.474121" width="80" height="80" rx="16" fill="url(#paint0_linear_18_1745)"/>
<path d="M33.7871 32.353L32.2578 36.7241H49.4727L47.9434 32.353C47.6797 31.603 46.9707 31.0991 46.1738 31.0991H35.5566C34.7598 31.0991 34.0508 31.603 33.7871 32.353ZM28.1855 37.0054L30.248 31.1167C31.0391 28.8608 33.166 27.3491 35.5566 27.3491H46.1738C48.5645 27.3491 50.6914 28.8608 51.4824 31.1167L53.5449 37.0054C54.9043 37.5679 55.8652 38.9097 55.8652 40.4741V48.9116V51.7241C55.8652 52.7612 55.0273 53.5991 53.9902 53.5991H52.1152C51.0781 53.5991 50.2402 52.7612 50.2402 51.7241V48.9116H31.4902V51.7241C31.4902 52.7612 30.6523 53.5991 29.6152 53.5991H27.7402C26.7031 53.5991 25.8652 52.7612 25.8652 51.7241V48.9116V40.4741C25.8652 38.9097 26.8262 37.5679 28.1855 37.0054ZM33.3652 42.3491C33.3652 41.8518 33.1677 41.3749 32.8161 41.0233C32.4644 40.6717 31.9875 40.4741 31.4902 40.4741C30.993 40.4741 30.516 40.6717 30.1644 41.0233C29.8128 41.3749 29.6152 41.8518 29.6152 42.3491C29.6152 42.8464 29.8128 43.3233 30.1644 43.6749C30.516 44.0266 30.993 44.2241 31.4902 44.2241C31.9875 44.2241 32.4644 44.0266 32.8161 43.6749C33.1677 43.3233 33.3652 42.8464 33.3652 42.3491ZM50.2402 44.2241C50.7375 44.2241 51.2144 44.0266 51.5661 43.6749C51.9177 43.3233 52.1152 42.8464 52.1152 42.3491C52.1152 41.8518 51.9177 41.3749 51.5661 41.0233C51.2144 40.6717 50.7375 40.4741 50.2402 40.4741C49.743 40.4741 49.266 40.6717 48.9144 41.0233C48.5628 41.3749 48.3652 41.8518 48.3652 42.3491C48.3652 42.8464 48.5628 43.3233 48.9144 43.6749C49.266 44.0266 49.743 44.2241 50.2402 44.2241Z" fill="white"/>
<defs>
<linearGradient id="paint0_linear_18_1745" x1="0.865234" y1="0.474121" x2="80.8652" y2="80.4741" gradientUnits="userSpaceOnUse">
<stop stop-color="#3B82F6"/>
<stop offset="1" stop-color="#4F46E5"/>
</linearGradient>
</defs>
</svg>
