<svg width="16" height="17" viewBox="0 0 16 17" fill="none" xmlns="http://www.w3.org/2000/svg">
<path d="M15.3619 5.68037C15.4619 5.95225 15.3775 6.25537 15.1619 6.44912L13.8088 7.68037C13.8432 7.93975 13.8619 8.20537 13.8619 8.47412C13.8619 8.74287 13.8432 9.0085 13.8088 9.26787L15.1619 10.4991C15.3775 10.6929 15.4619 10.996 15.3619 11.2679C15.2244 11.6397 15.0588 11.996 14.8682 12.3397L14.7213 12.5929C14.515 12.9366 14.2838 13.2616 14.0307 13.5679C13.8463 13.7929 13.54 13.8679 13.265 13.7804L11.5244 13.2272C11.1057 13.5491 10.6432 13.8179 10.1494 14.021L9.7588 15.8054C9.6963 16.0897 9.47755 16.3147 9.19005 16.3616C8.7588 16.4335 8.31505 16.471 7.86192 16.471C7.4088 16.471 6.96505 16.4335 6.5338 16.3616C6.2463 16.3147 6.02755 16.0897 5.96505 15.8054L5.57442 14.021C5.08067 13.8179 4.61817 13.5491 4.19942 13.2272L2.46192 13.7835C2.18692 13.871 1.88067 13.7929 1.6963 13.571C1.44317 13.2647 1.21192 12.9397 1.00567 12.596L0.858797 12.3429C0.668172 11.9991 0.502547 11.6429 0.365047 11.271C0.265047 10.9991 0.349422 10.696 0.565047 10.5022L1.91817 9.271C1.8838 9.0085 1.86505 8.74287 1.86505 8.47412C1.86505 8.20537 1.8838 7.93975 1.91817 7.68037L0.565047 6.44912C0.349422 6.25537 0.265047 5.95225 0.365047 5.68037C0.502547 5.3085 0.668172 4.95225 0.858797 4.6085L1.00567 4.35537C1.21192 4.01162 1.44317 3.68662 1.6963 3.38037C1.88067 3.15537 2.18692 3.08037 2.46192 3.16787L4.20255 3.721C4.6213 3.39912 5.0838 3.13037 5.57755 2.92725L5.96817 1.14287C6.03067 0.858496 6.24942 0.633496 6.53692 0.586621C6.96817 0.511621 7.41192 0.474121 7.86505 0.474121C8.31817 0.474121 8.76192 0.511621 9.19317 0.583496C9.48067 0.630371 9.69942 0.855371 9.76192 1.13975L10.1525 2.92412C10.6463 3.12725 11.1088 3.396 11.5275 3.71787L13.2682 3.16475C13.5432 3.07725 13.8494 3.15537 14.0338 3.37725C14.2869 3.6835 14.5182 4.0085 14.7244 4.35225L14.8713 4.60537C15.0619 4.94912 15.2275 5.30537 15.365 5.67725L15.3619 5.68037ZM7.86505 10.9741C8.52809 10.9741 9.16397 10.7107 9.63281 10.2419C10.1017 9.77305 10.365 9.13716 10.365 8.47412C10.365 7.81108 10.1017 7.1752 9.63281 6.70635C9.16397 6.23751 8.52809 5.97412 7.86505 5.97412C7.20201 5.97412 6.56612 6.23751 6.09728 6.70635C5.62844 7.1752 5.36505 7.81108 5.36505 8.47412C5.36505 9.13716 5.62844 9.77305 6.09728 10.2419C6.56612 10.7107 7.20201 10.9741 7.86505 10.9741Z" fill="#6366F1"/>
</svg>
