<svg width="81" height="81" viewBox="0 0 81 81" fill="none" xmlns="http://www.w3.org/2000/svg">
<rect x="0.865234" y="0.474121" width="80" height="80" rx="16" fill="url(#paint0_linear_18_1757)"/>
<path d="M24.9277 25.4741C23.375 25.4741 22.1152 26.7339 22.1152 28.2866V47.0366C22.1152 48.5894 23.375 49.8491 24.9277 49.8491H25.8652C25.8652 52.9546 28.3848 55.4741 31.4902 55.4741C34.5957 55.4741 37.1152 52.9546 37.1152 49.8491H44.6152C44.6152 52.9546 47.1348 55.4741 50.2402 55.4741C53.3457 55.4741 55.8652 52.9546 55.8652 49.8491H57.7402C58.7773 49.8491 59.6152 49.0112 59.6152 47.9741C59.6152 46.937 58.7773 46.0991 57.7402 46.0991V42.3491V40.4741V39.3784C57.7402 38.3823 57.3477 37.4272 56.6445 36.7241L52.1152 32.1948C51.4121 31.4917 50.457 31.0991 49.4609 31.0991H46.4902V28.2866C46.4902 26.7339 45.2305 25.4741 43.6777 25.4741H24.9277ZM46.4902 34.8491H49.4609L53.9902 39.3784V40.4741H46.4902V34.8491ZM28.6777 49.8491C28.6777 49.1032 28.9741 48.3878 29.5015 47.8604C30.0289 47.3329 30.7443 47.0366 31.4902 47.0366C32.2362 47.0366 32.9515 47.3329 33.479 47.8604C34.0064 48.3878 34.3027 49.1032 34.3027 49.8491C34.3027 50.595 34.0064 51.3104 33.479 51.8379C32.9515 52.3653 32.2362 52.6616 31.4902 52.6616C30.7443 52.6616 30.0289 52.3653 29.5015 51.8379C28.9741 51.3104 28.6777 50.595 28.6777 49.8491ZM50.2402 47.0366C50.9862 47.0366 51.7015 47.3329 52.229 47.8604C52.7564 48.3878 53.0527 49.1032 53.0527 49.8491C53.0527 50.595 52.7564 51.3104 52.229 51.8379C51.7015 52.3653 50.9862 52.6616 50.2402 52.6616C49.4943 52.6616 48.7789 52.3653 48.2515 51.8379C47.7241 51.3104 47.4277 50.595 47.4277 49.8491C47.4277 49.1032 47.7241 48.3878 48.2515 47.8604C48.7789 47.3329 49.4943 47.0366 50.2402 47.0366Z" fill="white"/>
<defs>
<linearGradient id="paint0_linear_18_1757" x1="0.865234" y1="0.474121" x2="80.8652" y2="80.4741" gradientUnits="userSpaceOnUse">
<stop stop-color="#22C55E"/>
<stop offset="1" stop-color="#059669"/>
</linearGradient>
</defs>
</svg>
