<svg width="17" height="17" viewBox="0 0 17 17" fill="none" xmlns="http://www.w3.org/2000/svg">
<path d="M13.9248 6.97412C13.9248 8.4085 13.4592 9.7335 12.6748 10.8085L16.6311 14.7679C17.0217 15.1585 17.0217 15.7929 16.6311 16.1835C16.2404 16.5741 15.6061 16.5741 15.2154 16.1835L11.2592 12.2241C10.1842 13.0116 8.85918 13.4741 7.4248 13.4741C3.83418 13.4741 0.924805 10.5647 0.924805 6.97412C0.924805 3.3835 3.83418 0.474121 7.4248 0.474121C11.0154 0.474121 13.9248 3.3835 13.9248 6.97412ZM7.4248 11.4741C8.01575 11.4741 8.60091 11.3577 9.14688 11.1316C9.69285 10.9054 10.1889 10.574 10.6068 10.1561C11.0246 9.73824 11.3561 9.24216 11.5823 8.6962C11.8084 8.15023 11.9248 7.56507 11.9248 6.97412C11.9248 6.38317 11.8084 5.79801 11.5823 5.25205C11.3561 4.70608 11.0246 4.21 10.6068 3.79214C10.1889 3.37428 9.69285 3.04281 9.14688 2.81666C8.60091 2.59052 8.01575 2.47412 7.4248 2.47412C6.83386 2.47412 6.24869 2.59052 5.70273 2.81666C5.15676 3.04281 4.66069 3.37428 4.24282 3.79214C3.82496 4.21 3.49349 4.70608 3.26735 5.25205C3.0412 5.79801 2.9248 6.38317 2.9248 6.97412C2.9248 7.56507 3.0412 8.15023 3.26735 8.6962C3.49349 9.24216 3.82496 9.73824 4.24282 10.1561C4.66069 10.574 5.15676 10.9054 5.70273 11.1316C6.24869 11.3577 6.83386 11.4741 7.4248 11.4741Z" fill="white"/>
</svg>
