<svg width="10" height="15" viewBox="0 0 10 15" fill="none" xmlns="http://www.w3.org/2000/svg">
<g clip-path="url(#clip0_1_283)">
<path d="M1.71875 10.375H3.03125C3.63555 10.375 4.125 10.8645 4.125 11.4688V12.7812C4.125 13.3855 3.63555 13.875 3.03125 13.875H1.71875C1.11445 13.875 0.625 13.3855 0.625 12.7812V11.4688C0.625 10.8645 1.11445 10.375 1.71875 10.375ZM6.96875 10.375H8.28125C8.88555 10.375 9.375 10.8645 9.375 11.4688V12.7812C9.375 13.3855 8.88555 13.875 8.28125 13.875H6.96875C6.36445 13.875 5.875 13.3855 5.875 12.7812V11.4688C5.875 10.8645 6.36445 10.375 6.96875 10.375ZM1.71875 9.5C1.11445 9.5 0.625 9.01055 0.625 8.40625V7.09375C0.625 6.48945 1.11445 6 1.71875 6H3.03125C3.63555 6 4.125 6.48945 4.125 7.09375V8.40625C4.125 9.01055 3.63555 9.5 3.03125 9.5H1.71875ZM6.96875 6H8.28125C8.88555 6 9.375 6.48945 9.375 7.09375V8.40625C9.375 9.01055 8.88555 9.5 8.28125 9.5H6.96875C6.36445 9.5 5.875 9.01055 5.875 8.40625V7.09375C5.875 6.48945 6.36445 6 6.96875 6ZM1.71875 5.125C1.11445 5.125 0.625 4.63555 0.625 4.03125V2.71875C0.625 2.11445 1.11445 1.625 1.71875 1.625H3.03125C3.63555 1.625 4.125 2.11445 4.125 2.71875V4.03125C4.125 4.63555 3.63555 5.125 3.03125 5.125H1.71875ZM6.96875 1.625H8.28125C8.88555 1.625 9.375 2.11445 9.375 2.71875V4.03125C9.375 4.63555 8.88555 5.125 8.28125 5.125H6.96875C6.36445 5.125 5.875 4.63555 5.875 4.03125V2.71875C5.875 2.11445 6.36445 1.625 6.96875 1.625Z" fill="#E6EDF3"/>
</g>
<defs>
<clipPath id="clip0_1_283">
<path d="M0.625 0.75H9.375V14.75H0.625V0.75Z" fill="white"/>
</clipPath>
</defs>
</svg>
