<svg width="32" height="32" viewBox="0 0 32 32" fill="none" xmlns="http://www.w3.org/2000/svg">
<path d="M26 0C29.3137 0 32 2.68629 32 6V26C32 29.3137 29.3137 32 26 32H6C2.68629 32 0 29.3137 0 26V6C0 2.68629 2.68629 0 6 0H26Z" fill="#58A6FF"/>
<path d="M26 0C29.3137 0 32 2.68629 32 6V26C32 29.3137 29.3137 32 26 32H6C2.68629 32 0 29.3137 0 26V6C0 2.68629 2.68629 0 6 0H26Z" stroke="#E5E7EB"/>
<path d="M24 28H8V4H24V28Z" stroke="#E5E7EB"/>
<g clip-path="url(#clip0_1_154)">
<path d="M24 16C24 16.0281 24 16.0563 24 16.0844C23.9875 17.225 22.95 18 21.8094 18H18.75C17.9219 18 17.25 18.6719 17.25 19.5C17.25 19.6062 17.2625 19.7094 17.2812 19.8094C17.3469 20.1281 17.4844 20.4344 17.6187 20.7437C17.8094 21.175 17.9969 21.6031 17.9969 22.0562C17.9969 23.05 17.3219 23.9531 16.3281 23.9937C16.2188 23.9969 16.1094 24 15.9969 24C11.5812 24 8 20.4187 8 16C8 11.5813 11.5813 8 16 8C20.4187 8 24 11.5813 24 16ZM12 17C12 16.7348 11.8946 16.4804 11.7071 16.2929C11.5196 16.1054 11.2652 16 11 16C10.7348 16 10.4804 16.1054 10.2929 16.2929C10.1054 16.4804 10 16.7348 10 17C10 17.2652 10.1054 17.5196 10.2929 17.7071C10.4804 17.8946 10.7348 18 11 18C11.2652 18 11.5196 17.8946 11.7071 17.7071C11.8946 17.5196 12 17.2652 12 17ZM12 14C12.2652 14 12.5196 13.8946 12.7071 13.7071C12.8946 13.5196 13 13.2652 13 13C13 12.7348 12.8946 12.4804 12.7071 12.2929C12.5196 12.1054 12.2652 12 12 12C11.7348 12 11.4804 12.1054 11.2929 12.2929C11.1054 12.4804 11 12.7348 11 13C11 13.2652 11.1054 13.5196 11.2929 13.7071C11.4804 13.8946 11.7348 14 12 14ZM17 11C17 10.7348 16.8946 10.4804 16.7071 10.2929C16.5196 10.1054 16.2652 10 16 10C15.7348 10 15.4804 10.1054 15.2929 10.2929C15.1054 10.4804 15 10.7348 15 11C15 11.2652 15.1054 11.5196 15.2929 11.7071C15.4804 11.8946 15.7348 12 16 12C16.2652 12 16.5196 11.8946 16.7071 11.7071C16.8946 11.5196 17 11.2652 17 11ZM20 14C20.2652 14 20.5196 13.8946 20.7071 13.7071C20.8946 13.5196 21 13.2652 21 13C21 12.7348 20.8946 12.4804 20.7071 12.2929C20.5196 12.1054 20.2652 12 20 12C19.7348 12 19.4804 12.1054 19.2929 12.2929C19.1054 12.4804 19 12.7348 19 13C19 13.2652 19.1054 13.5196 19.2929 13.7071C19.4804 13.8946 19.7348 14 20 14Z" fill="white"/>
</g>
<defs>
<clipPath id="clip0_1_154">
<path d="M8 8H24V24H8V8Z" fill="white"/>
</clipPath>
</defs>
</svg>
