<svg width="14" height="13" viewBox="0 0 14 13" fill="none" xmlns="http://www.w3.org/2000/svg">
<path d="M3.90742 3.65743C5.6082 1.95665 8.35625 1.94845 10.068 3.63009L8.94141 4.75392C8.75273 4.94259 8.69805 5.22423 8.79922 5.47032C8.90039 5.71642 9.14102 5.87501 9.40625 5.87501H12.6738H12.9062C13.2699 5.87501 13.5625 5.58243 13.5625 5.21876V1.71876C13.5625 1.45353 13.4039 1.2129 13.1578 1.11173C12.9117 1.01056 12.6301 1.06525 12.4414 1.25392L11.3039 2.39142C8.90859 0.0261846 5.05039 0.0343878 2.66875 2.41876C2.00156 3.08595 1.52031 3.87072 1.225 4.71017C1.06367 5.16681 1.3043 5.66447 1.7582 5.82579C2.21211 5.98712 2.7125 5.7465 2.87383 5.29259C3.08437 4.6965 3.42617 4.13595 3.90742 3.65743ZM0.4375 8.28126V8.48908V8.50822V11.7813C0.4375 12.0465 0.596094 12.2871 0.842187 12.3883C1.08828 12.4895 1.36992 12.4348 1.55859 12.2461L2.69609 11.1086C5.09141 13.4738 8.94961 13.4656 11.3313 11.0813C11.9984 10.4141 12.4824 9.62931 12.7777 8.79259C12.9391 8.33595 12.6984 7.83829 12.2445 7.67697C11.7906 7.51564 11.2902 7.75626 11.1289 8.21017C10.9184 8.80626 10.5766 9.36681 10.0953 9.84533C8.39453 11.5461 5.64648 11.5543 3.93477 9.87267L5.05859 8.74611C5.24727 8.55744 5.30195 8.27579 5.20078 8.0297C5.09961 7.78361 4.85898 7.62501 4.59375 7.62501H1.32344H1.3043H1.09375C0.730078 7.62501 0.4375 7.91759 0.4375 8.28126Z" fill="#848D97"/>
</svg>
