<svg width="32" height="32" viewBox="0 0 32 32" fill="none" xmlns="http://www.w3.org/2000/svg">
<path d="M26 0C29.3137 0 32 2.68629 32 6V26C32 29.3137 29.3137 32 26 32H6C2.68629 32 0 29.3137 0 26V6C0 2.68629 2.68629 0 6 0H26Z" fill="#58A6FF"/>
<path d="M26 0C29.3137 0 32 2.68629 32 6V26C32 29.3137 29.3137 32 26 32H6C2.68629 32 0 29.3137 0 26V6C0 2.68629 2.68629 0 6 0H26Z" stroke="#E5E7EB"/>
<path d="M25 28H7V4H25V28Z" stroke="#E5E7EB"/>
<path d="M25 24H7V8H25V24Z" stroke="#E5E7EB"/>
<path d="M7 12C7 10.8969 7.89688 10 9 10H17C18.1031 10 19 10.8969 19 12V20C19 21.1031 18.1031 22 17 22H9C7.89688 22 7 21.1031 7 20V12ZM24.4719 11.1188C24.7969 11.2938 25 11.6313 25 12V20C25 20.3687 24.7969 20.7063 24.4719 20.8813C24.1469 21.0563 23.7531 21.0375 23.4438 20.8313L20.4438 18.8313L20 18.5344V18V14V13.4656L20.4438 13.1687L23.4438 11.1688C23.75 10.9656 24.1437 10.9438 24.4719 11.1188Z" fill="white"/>
</svg>
